<?xml version="1.0" standalone="no"?>
<!DOCTYPE svg PUBLIC "-//W3C//DTD SVG 20010904//EN"
 "http://www.w3.org/TR/2001/REC-SVG-20010904/DTD/svg10.dtd">
<svg version="1.0" xmlns="http://www.w3.org/2000/svg"
 width="300.000000pt" height="70.000000pt" viewBox="0 0 300.000000 70.000000"
 preserveAspectRatio="xMidYMid meet">

<g transform="translate(0.000000,70.000000) scale(0.100000,-0.100000)"
fill="#000000" stroke="none">
<path d="M393 683 c15 -2 39 -2 55 0 15 2 2 4 -28 4 -30 0 -43 -2 -27 -4z"/>
<path d="M268 656 c-67 -27 -144 -72 -154 -88 -4 -7 6 -3 22 9 40 28 109 62
169 84 27 10 43 18 35 18 -8 0 -40 -10 -72 -23z"/>
<path d="M515 666 c57 -25 95 -85 95 -148 0 -51 -29 -134 -70 -197 -40 -62
-117 -151 -130 -151 -4 0 -15 20 -26 45 -10 25 -20 45 -21 45 -8 0 -83 -53
-83 -59 0 -3 14 -24 30 -45 37 -48 34 -53 -72 -106 -44 -22 -71 -40 -60 -40
25 0 139 36 171 54 23 13 29 11 75 -19 28 -18 61 -36 74 -40 20 -6 18 -1 -17
47 -23 29 -41 55 -41 58 0 3 31 37 69 76 88 90 132 174 139 265 5 72 -7 123
-40 164 -20 26 -87 65 -110 65 -7 -1 1 -7 17 -14z"/>
<path d="M69 533 c-13 -16 -12 -17 4 -4 9 7 17 15 17 17 0 8 -8 3 -21 -13z"/>
<path d="M120 501 c-22 -42 -14 -51 46 -51 48 0 55 -2 50 -17 -3 -10 -22 -81
-41 -158 -20 -77 -38 -148 -41 -157 -5 -15 1 -18 39 -18 l45 0 32 118 c18 64
39 143 48 175 l15 57 52 0 c46 0 53 3 63 25 7 14 12 30 12 35 0 6 -63 10 -155
10 -142 0 -155 -1 -165 -19z"/>
<path d="M793 421 c-33 -21 -46 -48 -45 -95 2 -62 35 -90 138 -116 77 -19 84
-66 13 -84 -25 -6 -49 -3 -92 12 l-58 19 3 -40 c3 -36 7 -42 33 -49 48 -14
159 -13 194 1 39 17 61 56 61 111 0 58 -39 93 -118 109 -74 14 -101 33 -86 57
19 32 96 36 167 9 14 -6 17 -1 17 33 0 36 -3 40 -31 46 -67 13 -163 7 -196
-13z"/>
<path d="M1130 250 l0 -190 135 0 135 0 0 35 0 34 -87 3 -88 3 -3 43 -3 42 80
0 81 0 0 35 0 34 -77 3 -78 3 0 35 0 35 83 3 82 3 0 34 0 35 -130 0 -130 0 0
-190z"/>
<path d="M1580 429 c-89 -36 -133 -125 -110 -226 24 -109 120 -166 240 -143
67 13 70 15 70 57 0 29 -3 34 -17 28 -56 -23 -77 -26 -109 -20 -120 22 -124
224 -6 248 27 5 77 -2 115 -18 14 -6 17 -1 17 29 0 30 -5 38 -26 46 -32 13
-141 12 -174 -1z"/>
<path d="M1870 299 c0 -158 9 -193 61 -223 39 -23 141 -26 183 -5 62 30 71 55
74 220 l3 149 -44 0 -45 0 -4 -132 c-3 -73 -9 -141 -13 -151 -19 -45 -97 -40
-115 8 -6 15 -10 82 -10 151 l0 124 -45 0 -45 0 0 -141z"/>
<path d="M2290 251 l0 -191 45 0 45 0 0 70 0 70 34 0 c39 0 62 -25 91 -98 l17
-42 55 0 54 0 -41 80 c-24 45 -50 82 -61 85 -17 6 -15 10 16 39 38 36 45 73
24 119 -17 38 -55 50 -171 55 l-108 4 0 -191z m178 107 c7 -7 12 -24 12 -38 0
-36 -17 -50 -62 -50 l-38 0 0 43 c0 24 3 47 7 50 11 12 68 8 81 -5z"/>
<path d="M2690 250 l0 -190 135 0 135 0 0 35 0 34 -87 3 -88 3 -3 43 -3 42 80
0 81 0 0 35 0 34 -77 3 -78 3 0 35 0 35 83 3 82 3 0 34 0 35 -130 0 -130 0 0
-190z"/>
</g>
</svg>
