<?xml version="1.0" standalone="no"?>
<!DOCTYPE svg PUBLIC "-//W3C//DTD SVG 20010904//EN"
 "http://www.w3.org/TR/2001/REC-SVG-20010904/DTD/svg10.dtd">
<svg version="1.0" xmlns="http://www.w3.org/2000/svg"
 width="24.000000pt" height="24.000000pt" viewBox="0 0 24.000000 24.000000"
 preserveAspectRatio="xMidYMid meet">

<g transform="translate(0.000000,24.000000) scale(0.100000,-0.100000)"
fill="#000000" stroke="none">
<path d="M205 170 c-1 -25 -10 -50 -28 -74 -30 -39 -44 -45 -49 -21 -2 9 -8
12 -17 6 -10 -6 -11 -13 -2 -29 9 -17 8 -22 -10 -27 -11 -4 -18 -9 -16 -12 3
-2 15 1 27 7 16 9 25 9 33 1 17 -17 31 -13 16 5 -11 13 -10 17 3 25 41 23 78
136 51 152 -5 3 -8 -12 -8 -33z"/>
<path d="M40 170 c0 -5 7 -10 16 -10 14 0 15 -7 9 -42 -11 -63 -11 -77 0 -80
5 -2 17 24 26 57 12 48 20 61 37 63 44 7 20 22 -33 22 -30 0 -55 -4 -55 -10z"/>
</g>
</svg>
